<?xml version="1.0" encoding="utf-8"?>
<!-- Svg Vector Icons : http://www.onlinewebfonts.com/icon -->
<!DOCTYPE svg PUBLIC "-//W3C//DTD SVG 1.1//EN" "http://www.w3.org/Graphics/SVG/1.1/DTD/svg11.dtd">
<svg version="1.1" xmlns="http://www.w3.org/2000/svg" xmlns:xlink="http://www.w3.org/1999/xlink" x="0px" y="0px" viewBox="0 0 1000 1000" enable-background="new 0 0 1000 1000" xml:space="preserve">
<metadata> Svg Vector Icons : http://www.onlinewebfonts.com/icon </metadata>
<g><g transform="translate(0.000000,511.000000) scale(0.100000,-0.100000)"><path d="M7679.7,4541.1v-402H7494h-187.6l290.9-290.9l292.9-292.8l277.5,277.5c153.1,153.1,277.5,283.3,277.5,290.9c0,9.6-82.3,15.3-181.8,15.3h-181.8v201v201h909.2H9900v201v201H8789.8H7679.7V4541.1z"/><path d="M3518.5,4098.9c-369.4-86.1-643.1-436.4-643.1-821.1c0-333,187.6-625.9,493.8-771.4c120.6-57.4,139.7-61.3,350.3-61.3c216.3,0,222,1.9,365.6,72.7c168.4,82.3,335,246.9,392.4,388.6l34.4,84.2h1684.4h1684.4l-287.1-287.1l-287.1-287.1H7494h185.7v-402v-402h1110.2H9900v201v201h-909.2h-909.2v201v201h185.7h187.6l-281.4,283.3l-283.3,281.4l-3.8,287.1l-5.7,287.1l-1684.4,5.7l-1684.4,3.8l-47.9,101.4c-93.8,195.2-333,380.9-557,432.6C3805.6,4123.8,3620,4121.9,3518.5,4098.9z M3943.4,3628c191.4-116.7,252.7-394.3,132.1-578c-76.6-114.8-185.7-179.9-319.7-189.5c-145.5-11.5-237.3,21-333,118.7c-181.8,181.8-164.6,455.6,40.2,629.7C3583.6,3712.3,3794.1,3719.9,3943.4,3628z"/><path d="M2741.4-1708.4V-4723h296.7h296.7l-3.8,3008.9l-5.7,3010.8l-290.9,5.7l-292.8,5.7V-1708.4z"/><path d="M3947.3-1708.4V-4723h287.1h287.1v3014.6v3014.6h-287.1h-287.1V-1708.4z"/><path d="M100,839.3V540.7h668c660.4,0,666.1,0,731.2-44c80.4-53.6,143.6-145.5,158.9-233.5c30.6-158.9-82.3-333.1-243.1-377.1l-90-23v-298.6v-296.7l93.8-34.5c176.1-61.3,277.5-241.2,231.6-407.7c-32.5-111-132.1-212.5-239.3-239.3l-86.1-21.1v-292.9v-292.9l86.1-21.1c174.2-44,290.9-241.2,239.3-409.6c-30.6-103.4-141.6-214.4-245-241.2l-80.4-22.9v-287.1c0-212.5,5.7-289,24.9-292.9c11.5-5.7,47.9-13.4,78.5-21c82.3-17.2,195.2-139.7,222-237.4c40.2-153.1-32.5-312-176.1-382.8c-80.4-38.3-111-40.2-729.2-40.2H100v-298.6v-298.6l704.4,7.7c666.1,7.6,708.2,9.6,815.4,49.8c386.6,143.6,624,474.7,624,872.8c0,201-49.8,367.5-155,526.4l-76.6,114.8l59.3,88c32.5,47.9,82.3,135.9,111,197.1c47.9,99.5,51.7,128.2,51.7,348.4c0,229.7-1.9,245-61.3,369.4c-34.4,72.7-88,162.7-118.7,202.9l-55.5,68.9l47.9,57.4c26.8,32.5,78.5,122.5,116.7,201c70.8,141.7,70.8,145.5,70.8,382.8c0,229.7-1.9,245-61.3,369.4c-34.4,72.7-90,164.6-120.6,204.8l-59.3,74.7l76.6,99.5c114.8,151.2,158.9,283.3,170.3,499.6c5.7,153.1,0,208.6-32.5,319.6c-80.4,262.2-294.8,495.7-551.3,597.2c-109.1,44-128.2,45.9-832.6,51.7l-723.5,5.7V839.3z"/></g></g>
</svg>